<mxfile host="app.diagrams.net" modified="2024-05-15T09:47:28.470Z" agent="Mozilla/5.0 (X11; Linux x86_64) AppleWebKit/537.36 (KHTML, like Gecko) Chrome/118.0.0.0 Safari/537.36" etag="oH3SxJ70fp2V8IRIjIyy" version="24.3.1" type="github">
  <diagram name="Page-1" id="l0rQaMWkcXzWaYh5zXX5">
    <mxGraphModel dx="1354" dy="771" grid="1" gridSize="10" guides="1" tooltips="1" connect="1" arrows="1" fold="1" page="1" pageScale="1" pageWidth="850" pageHeight="1100" math="0" shadow="0">
      <root>
        <mxCell id="0" />
        <mxCell id="1" parent="0" />
        <mxCell id="oq99CJUn9jh8zhmCjYO--1" value="" style="rounded=0;whiteSpace=wrap;html=1;dashed=1;" vertex="1" parent="1">
          <mxGeometry x="200" y="250" width="580" height="760" as="geometry" />
        </mxCell>
        <mxCell id="oq99CJUn9jh8zhmCjYO--95" value="" style="rounded=0;whiteSpace=wrap;html=1;dashed=1;" vertex="1" parent="1">
          <mxGeometry x="560" y="398" width="160" height="170" as="geometry" />
        </mxCell>
        <mxCell id="oq99CJUn9jh8zhmCjYO--55" value="" style="rounded=0;whiteSpace=wrap;html=1;dashed=1;" vertex="1" parent="1">
          <mxGeometry x="350" y="398" width="170" height="170" as="geometry" />
        </mxCell>
        <mxCell id="oq99CJUn9jh8zhmCjYO--2" style="edgeStyle=orthogonalEdgeStyle;rounded=0;orthogonalLoop=1;jettySize=auto;html=1;entryX=0.5;entryY=1;entryDx=0;entryDy=0;" edge="1" parent="1" source="oq99CJUn9jh8zhmCjYO--3" target="oq99CJUn9jh8zhmCjYO--12">
          <mxGeometry relative="1" as="geometry" />
        </mxCell>
        <mxCell id="oq99CJUn9jh8zhmCjYO--3" value="Embedding" style="rounded=1;whiteSpace=wrap;html=1;fillColor=#d5e8d4;strokeColor=#82b366;" vertex="1" parent="1">
          <mxGeometry x="360" y="1020" width="120" height="30" as="geometry" />
        </mxCell>
        <mxCell id="oq99CJUn9jh8zhmCjYO--4" style="edgeStyle=orthogonalEdgeStyle;rounded=0;orthogonalLoop=1;jettySize=auto;html=1;entryX=0.5;entryY=1;entryDx=0;entryDy=0;" edge="1" parent="1" source="oq99CJUn9jh8zhmCjYO--5" target="oq99CJUn9jh8zhmCjYO--3">
          <mxGeometry relative="1" as="geometry" />
        </mxCell>
        <mxCell id="oq99CJUn9jh8zhmCjYO--5" value="input_ids" style="text;html=1;align=center;verticalAlign=middle;resizable=0;points=[];autosize=1;strokeColor=none;fillColor=none;" vertex="1" parent="1">
          <mxGeometry x="385" y="1070" width="70" height="30" as="geometry" />
        </mxCell>
        <mxCell id="oq99CJUn9jh8zhmCjYO--6" style="edgeStyle=orthogonalEdgeStyle;rounded=0;orthogonalLoop=1;jettySize=auto;html=1;" edge="1" parent="1" source="oq99CJUn9jh8zhmCjYO--7" target="oq99CJUn9jh8zhmCjYO--8">
          <mxGeometry relative="1" as="geometry" />
        </mxCell>
        <mxCell id="oq99CJUn9jh8zhmCjYO--7" value="lm_head" style="rounded=1;whiteSpace=wrap;html=1;fillColor=#f5f5f5;fontColor=#333333;strokeColor=#666666;" vertex="1" parent="1">
          <mxGeometry x="360" y="150" width="120" height="30" as="geometry" />
        </mxCell>
        <mxCell id="oq99CJUn9jh8zhmCjYO--8" value="logits" style="text;html=1;align=center;verticalAlign=middle;resizable=0;points=[];autosize=1;strokeColor=none;fillColor=none;" vertex="1" parent="1">
          <mxGeometry x="395" y="90" width="50" height="30" as="geometry" />
        </mxCell>
        <mxCell id="oq99CJUn9jh8zhmCjYO--9" style="edgeStyle=orthogonalEdgeStyle;rounded=0;orthogonalLoop=1;jettySize=auto;html=1;entryX=0.5;entryY=1;entryDx=0;entryDy=0;" edge="1" parent="1" source="oq99CJUn9jh8zhmCjYO--10" target="oq99CJUn9jh8zhmCjYO--7">
          <mxGeometry relative="1" as="geometry" />
        </mxCell>
        <mxCell id="oq99CJUn9jh8zhmCjYO--10" value="RMSNorm" style="rounded=1;whiteSpace=wrap;html=1;fillColor=#dae8fc;strokeColor=#6c8ebf;" vertex="1" parent="1">
          <mxGeometry x="360" y="198" width="120" height="30" as="geometry" />
        </mxCell>
        <mxCell id="oq99CJUn9jh8zhmCjYO--11" style="edgeStyle=orthogonalEdgeStyle;rounded=0;orthogonalLoop=1;jettySize=auto;html=1;entryX=0.5;entryY=1;entryDx=0;entryDy=0;" edge="1" parent="1" source="oq99CJUn9jh8zhmCjYO--12" target="oq99CJUn9jh8zhmCjYO--14">
          <mxGeometry relative="1" as="geometry" />
        </mxCell>
        <mxCell id="oq99CJUn9jh8zhmCjYO--12" value="RMSNorm" style="rounded=1;whiteSpace=wrap;html=1;fillColor=#dae8fc;strokeColor=#6c8ebf;" vertex="1" parent="1">
          <mxGeometry x="360" y="960" width="120" height="30" as="geometry" />
        </mxCell>
        <mxCell id="oq99CJUn9jh8zhmCjYO--13" style="edgeStyle=orthogonalEdgeStyle;rounded=0;orthogonalLoop=1;jettySize=auto;html=1;entryX=0.5;entryY=1;entryDx=0;entryDy=0;" edge="1" parent="1" source="oq99CJUn9jh8zhmCjYO--14" target="oq99CJUn9jh8zhmCjYO--17">
          <mxGeometry relative="1" as="geometry" />
        </mxCell>
        <mxCell id="oq99CJUn9jh8zhmCjYO--14" value="Qwen2MoeAttention" style="rounded=1;whiteSpace=wrap;html=1;fillColor=#f8cecc;strokeColor=#b85450;" vertex="1" parent="1">
          <mxGeometry x="360" y="900" width="120" height="30" as="geometry" />
        </mxCell>
        <mxCell id="oq99CJUn9jh8zhmCjYO--15" style="edgeStyle=orthogonalEdgeStyle;rounded=0;orthogonalLoop=1;jettySize=auto;html=1;entryX=0.5;entryY=1;entryDx=0;entryDy=0;" edge="1" parent="1" source="oq99CJUn9jh8zhmCjYO--17" target="oq99CJUn9jh8zhmCjYO--19">
          <mxGeometry relative="1" as="geometry">
            <Array as="points">
              <mxPoint x="420" y="830" />
              <mxPoint x="360" y="830" />
            </Array>
          </mxGeometry>
        </mxCell>
        <mxCell id="oq99CJUn9jh8zhmCjYO--16" style="edgeStyle=orthogonalEdgeStyle;rounded=0;orthogonalLoop=1;jettySize=auto;html=1;entryX=0;entryY=0.5;entryDx=0;entryDy=0;" edge="1" parent="1" source="oq99CJUn9jh8zhmCjYO--17" target="oq99CJUn9jh8zhmCjYO--44">
          <mxGeometry relative="1" as="geometry">
            <Array as="points">
              <mxPoint x="420" y="830" />
              <mxPoint x="250" y="830" />
              <mxPoint x="250" y="273" />
            </Array>
          </mxGeometry>
        </mxCell>
        <mxCell id="oq99CJUn9jh8zhmCjYO--87" style="edgeStyle=orthogonalEdgeStyle;rounded=0;orthogonalLoop=1;jettySize=auto;html=1;exitX=0.5;exitY=0;exitDx=0;exitDy=0;entryX=0.5;entryY=1;entryDx=0;entryDy=0;" edge="1" parent="1" source="oq99CJUn9jh8zhmCjYO--17" target="oq99CJUn9jh8zhmCjYO--86">
          <mxGeometry relative="1" as="geometry">
            <Array as="points">
              <mxPoint x="420" y="830" />
              <mxPoint x="645" y="830" />
            </Array>
          </mxGeometry>
        </mxCell>
        <mxCell id="oq99CJUn9jh8zhmCjYO--90" style="edgeStyle=orthogonalEdgeStyle;rounded=0;orthogonalLoop=1;jettySize=auto;html=1;exitX=0.5;exitY=0;exitDx=0;exitDy=0;entryX=0.5;entryY=1;entryDx=0;entryDy=0;" edge="1" parent="1" source="oq99CJUn9jh8zhmCjYO--17" target="oq99CJUn9jh8zhmCjYO--75">
          <mxGeometry relative="1" as="geometry">
            <Array as="points">
              <mxPoint x="420" y="830" />
              <mxPoint x="545" y="830" />
            </Array>
          </mxGeometry>
        </mxCell>
        <mxCell id="oq99CJUn9jh8zhmCjYO--94" style="edgeStyle=orthogonalEdgeStyle;rounded=0;orthogonalLoop=1;jettySize=auto;html=1;exitX=0.5;exitY=0;exitDx=0;exitDy=0;entryX=0.5;entryY=1;entryDx=0;entryDy=0;" edge="1" parent="1" source="oq99CJUn9jh8zhmCjYO--17" target="oq99CJUn9jh8zhmCjYO--79">
          <mxGeometry relative="1" as="geometry">
            <Array as="points">
              <mxPoint x="420" y="830" />
              <mxPoint x="750" y="830" />
              <mxPoint x="750" y="560" />
              <mxPoint x="650" y="560" />
            </Array>
          </mxGeometry>
        </mxCell>
        <mxCell id="oq99CJUn9jh8zhmCjYO--17" value="RMSNorm" style="rounded=1;whiteSpace=wrap;html=1;fillColor=#dae8fc;strokeColor=#6c8ebf;" vertex="1" parent="1">
          <mxGeometry x="360" y="840" width="120" height="30" as="geometry" />
        </mxCell>
        <mxCell id="oq99CJUn9jh8zhmCjYO--18" style="edgeStyle=orthogonalEdgeStyle;rounded=0;orthogonalLoop=1;jettySize=auto;html=1;entryX=0.5;entryY=1;entryDx=0;entryDy=0;" edge="1" parent="1" source="oq99CJUn9jh8zhmCjYO--19" target="oq99CJUn9jh8zhmCjYO--21">
          <mxGeometry relative="1" as="geometry" />
        </mxCell>
        <mxCell id="oq99CJUn9jh8zhmCjYO--19" value="gate&amp;nbsp;(Linear)" style="rounded=1;whiteSpace=wrap;html=1;" vertex="1" parent="1">
          <mxGeometry x="300" y="780" width="120" height="30" as="geometry" />
        </mxCell>
        <mxCell id="oq99CJUn9jh8zhmCjYO--20" style="edgeStyle=orthogonalEdgeStyle;rounded=0;orthogonalLoop=1;jettySize=auto;html=1;entryX=0.5;entryY=1;entryDx=0;entryDy=0;" edge="1" parent="1" source="oq99CJUn9jh8zhmCjYO--21" target="oq99CJUn9jh8zhmCjYO--36">
          <mxGeometry relative="1" as="geometry" />
        </mxCell>
        <mxCell id="oq99CJUn9jh8zhmCjYO--21" value="softmax" style="rounded=1;whiteSpace=wrap;html=1;" vertex="1" parent="1">
          <mxGeometry x="300" y="720" width="120" height="30" as="geometry" />
        </mxCell>
        <mxCell id="oq99CJUn9jh8zhmCjYO--71" style="edgeStyle=orthogonalEdgeStyle;rounded=0;orthogonalLoop=1;jettySize=auto;html=1;exitX=0.5;exitY=0;exitDx=0;exitDy=0;entryX=0;entryY=0.5;entryDx=0;entryDy=0;" edge="1" parent="1" source="oq99CJUn9jh8zhmCjYO--28" target="oq99CJUn9jh8zhmCjYO--63">
          <mxGeometry relative="1" as="geometry">
            <Array as="points">
              <mxPoint x="360" y="453" />
            </Array>
          </mxGeometry>
        </mxCell>
        <mxCell id="oq99CJUn9jh8zhmCjYO--28" value="routing_weights /= routing_weights.sum" style="rounded=1;whiteSpace=wrap;html=1;" vertex="1" parent="1">
          <mxGeometry x="300" y="588" width="120" height="30" as="geometry" />
        </mxCell>
        <mxCell id="oq99CJUn9jh8zhmCjYO--35" style="edgeStyle=orthogonalEdgeStyle;rounded=0;orthogonalLoop=1;jettySize=auto;html=1;entryX=0.5;entryY=1;entryDx=0;entryDy=0;" edge="1" parent="1" source="oq99CJUn9jh8zhmCjYO--36" target="oq99CJUn9jh8zhmCjYO--28">
          <mxGeometry relative="1" as="geometry" />
        </mxCell>
        <mxCell id="oq99CJUn9jh8zhmCjYO--85" style="edgeStyle=orthogonalEdgeStyle;rounded=0;orthogonalLoop=1;jettySize=auto;html=1;exitX=1;exitY=0.5;exitDx=0;exitDy=0;entryX=0;entryY=0.5;entryDx=0;entryDy=0;" edge="1" parent="1" source="oq99CJUn9jh8zhmCjYO--36" target="oq99CJUn9jh8zhmCjYO--75">
          <mxGeometry relative="1" as="geometry" />
        </mxCell>
        <mxCell id="oq99CJUn9jh8zhmCjYO--36" value="topK" style="rounded=1;whiteSpace=wrap;html=1;" vertex="1" parent="1">
          <mxGeometry x="300" y="660" width="120" height="30" as="geometry" />
        </mxCell>
        <mxCell id="oq99CJUn9jh8zhmCjYO--99" style="edgeStyle=orthogonalEdgeStyle;rounded=0;orthogonalLoop=1;jettySize=auto;html=1;exitX=0.5;exitY=0;exitDx=0;exitDy=0;entryX=0.5;entryY=1;entryDx=0;entryDy=0;" edge="1" parent="1" source="oq99CJUn9jh8zhmCjYO--42" target="oq99CJUn9jh8zhmCjYO--97">
          <mxGeometry relative="1" as="geometry" />
        </mxCell>
        <mxCell id="oq99CJUn9jh8zhmCjYO--42" value="index_add_" style="rounded=1;whiteSpace=wrap;html=1;" vertex="1" parent="1">
          <mxGeometry x="385" y="350" width="70" height="30" as="geometry" />
        </mxCell>
        <mxCell id="oq99CJUn9jh8zhmCjYO--43" style="edgeStyle=orthogonalEdgeStyle;rounded=0;orthogonalLoop=1;jettySize=auto;html=1;entryX=0.5;entryY=1;entryDx=0;entryDy=0;" edge="1" parent="1" source="oq99CJUn9jh8zhmCjYO--44" target="oq99CJUn9jh8zhmCjYO--10">
          <mxGeometry relative="1" as="geometry" />
        </mxCell>
        <mxCell id="oq99CJUn9jh8zhmCjYO--44" value="Add Residual" style="rounded=1;whiteSpace=wrap;html=1;" vertex="1" parent="1">
          <mxGeometry x="360" y="258" width="120" height="30" as="geometry" />
        </mxCell>
        <mxCell id="oq99CJUn9jh8zhmCjYO--45" value="x N" style="text;html=1;align=center;verticalAlign=middle;resizable=0;points=[];autosize=1;strokeColor=none;fillColor=none;" vertex="1" parent="1">
          <mxGeometry x="740" y="250" width="40" height="30" as="geometry" />
        </mxCell>
        <mxCell id="oq99CJUn9jh8zhmCjYO--47" value="hidden_states" style="text;html=1;align=center;verticalAlign=middle;resizable=0;points=[];autosize=1;strokeColor=none;fillColor=none;" vertex="1" parent="1">
          <mxGeometry x="490" y="830" width="100" height="30" as="geometry" />
        </mxCell>
        <mxCell id="oq99CJUn9jh8zhmCjYO--48" value="Qwen2MoeDecoderLayer" style="text;html=1;align=center;verticalAlign=middle;whiteSpace=wrap;rounded=0;" vertex="1" parent="1">
          <mxGeometry x="220" y="970" width="110" height="30" as="geometry" />
        </mxCell>
        <mxCell id="oq99CJUn9jh8zhmCjYO--56" value="FFN" style="rounded=1;whiteSpace=wrap;html=1;fillColor=#fff2cc;strokeColor=#d6b656;" vertex="1" parent="1">
          <mxGeometry x="400" y="498" width="40" height="30" as="geometry" />
        </mxCell>
        <mxCell id="oq99CJUn9jh8zhmCjYO--57" style="edgeStyle=orthogonalEdgeStyle;rounded=0;orthogonalLoop=1;jettySize=auto;html=1;entryX=0.5;entryY=1;entryDx=0;entryDy=0;exitX=0.5;exitY=0;exitDx=0;exitDy=0;" edge="1" parent="1" source="oq99CJUn9jh8zhmCjYO--56" target="oq99CJUn9jh8zhmCjYO--63">
          <mxGeometry relative="1" as="geometry">
            <mxPoint x="400" y="368" as="sourcePoint" />
          </mxGeometry>
        </mxCell>
        <mxCell id="oq99CJUn9jh8zhmCjYO--70" style="edgeStyle=orthogonalEdgeStyle;rounded=0;orthogonalLoop=1;jettySize=auto;html=1;exitX=0.5;exitY=0;exitDx=0;exitDy=0;entryX=0.5;entryY=1;entryDx=0;entryDy=0;" edge="1" parent="1" source="oq99CJUn9jh8zhmCjYO--63" target="oq99CJUn9jh8zhmCjYO--42">
          <mxGeometry relative="1" as="geometry" />
        </mxCell>
        <mxCell id="oq99CJUn9jh8zhmCjYO--63" value="dot" style="rounded=1;whiteSpace=wrap;html=1;" vertex="1" parent="1">
          <mxGeometry x="400" y="438" width="40" height="30" as="geometry" />
        </mxCell>
        <mxCell id="oq99CJUn9jh8zhmCjYO--66" value="x num_experts" style="text;html=1;align=center;verticalAlign=middle;resizable=0;points=[];autosize=1;strokeColor=none;fillColor=none;" vertex="1" parent="1">
          <mxGeometry x="420" y="398" width="100" height="30" as="geometry" />
        </mxCell>
        <mxCell id="oq99CJUn9jh8zhmCjYO--77" style="edgeStyle=orthogonalEdgeStyle;rounded=0;orthogonalLoop=1;jettySize=auto;html=1;exitX=0.5;exitY=0;exitDx=0;exitDy=0;entryX=0.5;entryY=1;entryDx=0;entryDy=0;" edge="1" parent="1" source="oq99CJUn9jh8zhmCjYO--75" target="oq99CJUn9jh8zhmCjYO--56">
          <mxGeometry relative="1" as="geometry">
            <Array as="points">
              <mxPoint x="545" y="560" />
              <mxPoint x="420" y="560" />
            </Array>
          </mxGeometry>
        </mxCell>
        <mxCell id="oq99CJUn9jh8zhmCjYO--75" value="choose experts" style="rounded=1;whiteSpace=wrap;html=1;dashed=1;" vertex="1" parent="1">
          <mxGeometry x="520" y="655" width="50" height="40" as="geometry" />
        </mxCell>
        <mxCell id="oq99CJUn9jh8zhmCjYO--79" value="FFN" style="rounded=1;whiteSpace=wrap;html=1;fillColor=#fff2cc;strokeColor=#d6b656;" vertex="1" parent="1">
          <mxGeometry x="630" y="498" width="40" height="30" as="geometry" />
        </mxCell>
        <mxCell id="oq99CJUn9jh8zhmCjYO--80" style="edgeStyle=orthogonalEdgeStyle;rounded=0;orthogonalLoop=1;jettySize=auto;html=1;entryX=0.5;entryY=1;entryDx=0;entryDy=0;exitX=0.5;exitY=0;exitDx=0;exitDy=0;" edge="1" parent="1" source="oq99CJUn9jh8zhmCjYO--79" target="oq99CJUn9jh8zhmCjYO--81">
          <mxGeometry relative="1" as="geometry">
            <mxPoint x="630" y="368" as="sourcePoint" />
          </mxGeometry>
        </mxCell>
        <mxCell id="oq99CJUn9jh8zhmCjYO--101" style="edgeStyle=orthogonalEdgeStyle;rounded=0;orthogonalLoop=1;jettySize=auto;html=1;exitX=0.5;exitY=0;exitDx=0;exitDy=0;entryX=1;entryY=0.5;entryDx=0;entryDy=0;" edge="1" parent="1" source="oq99CJUn9jh8zhmCjYO--81" target="oq99CJUn9jh8zhmCjYO--97">
          <mxGeometry relative="1" as="geometry" />
        </mxCell>
        <mxCell id="oq99CJUn9jh8zhmCjYO--81" value="dot" style="rounded=1;whiteSpace=wrap;html=1;" vertex="1" parent="1">
          <mxGeometry x="630" y="438" width="40" height="30" as="geometry" />
        </mxCell>
        <mxCell id="oq99CJUn9jh8zhmCjYO--89" style="edgeStyle=orthogonalEdgeStyle;rounded=0;orthogonalLoop=1;jettySize=auto;html=1;exitX=0.5;exitY=0;exitDx=0;exitDy=0;entryX=0.5;entryY=1;entryDx=0;entryDy=0;" edge="1" parent="1" source="oq99CJUn9jh8zhmCjYO--86" target="oq99CJUn9jh8zhmCjYO--88">
          <mxGeometry relative="1" as="geometry" />
        </mxCell>
        <mxCell id="oq99CJUn9jh8zhmCjYO--86" value="shared_expert_gate&amp;nbsp;(Linear)" style="rounded=1;whiteSpace=wrap;html=1;" vertex="1" parent="1">
          <mxGeometry x="560" y="770" width="170" height="30" as="geometry" />
        </mxCell>
        <mxCell id="oq99CJUn9jh8zhmCjYO--93" style="edgeStyle=orthogonalEdgeStyle;rounded=0;orthogonalLoop=1;jettySize=auto;html=1;exitX=0.5;exitY=0;exitDx=0;exitDy=0;entryX=0;entryY=0.5;entryDx=0;entryDy=0;" edge="1" parent="1" source="oq99CJUn9jh8zhmCjYO--88" target="oq99CJUn9jh8zhmCjYO--81">
          <mxGeometry relative="1" as="geometry" />
        </mxCell>
        <mxCell id="oq99CJUn9jh8zhmCjYO--88" value="sigmoid" style="rounded=1;whiteSpace=wrap;html=1;" vertex="1" parent="1">
          <mxGeometry x="585" y="720" width="120" height="30" as="geometry" />
        </mxCell>
        <mxCell id="oq99CJUn9jh8zhmCjYO--91" value="routing_weights" style="text;html=1;align=center;verticalAlign=middle;whiteSpace=wrap;rounded=0;" vertex="1" parent="1">
          <mxGeometry x="280" y="625" width="60" height="30" as="geometry" />
        </mxCell>
        <mxCell id="oq99CJUn9jh8zhmCjYO--92" value="selected_experts" style="text;html=1;align=center;verticalAlign=middle;whiteSpace=wrap;rounded=0;" vertex="1" parent="1">
          <mxGeometry x="445" y="640" width="50" height="30" as="geometry" />
        </mxCell>
        <mxCell id="oq99CJUn9jh8zhmCjYO--96" value="shared_expert" style="text;html=1;align=center;verticalAlign=middle;resizable=0;points=[];autosize=1;strokeColor=none;fillColor=none;" vertex="1" parent="1">
          <mxGeometry x="553" y="398" width="100" height="30" as="geometry" />
        </mxCell>
        <mxCell id="oq99CJUn9jh8zhmCjYO--100" style="edgeStyle=orthogonalEdgeStyle;rounded=0;orthogonalLoop=1;jettySize=auto;html=1;exitX=0.5;exitY=0;exitDx=0;exitDy=0;entryX=0.5;entryY=1;entryDx=0;entryDy=0;" edge="1" parent="1" source="oq99CJUn9jh8zhmCjYO--97" target="oq99CJUn9jh8zhmCjYO--44">
          <mxGeometry relative="1" as="geometry" />
        </mxCell>
        <mxCell id="oq99CJUn9jh8zhmCjYO--97" value="+" style="rounded=1;whiteSpace=wrap;html=1;" vertex="1" parent="1">
          <mxGeometry x="385" y="304" width="70" height="30" as="geometry" />
        </mxCell>
      </root>
    </mxGraphModel>
  </diagram>
</mxfile>
